<?xml version="1.0" encoding="utf-8"?><!-- Generator: Adobe Illustrator 23.0.0, SVG Export Plug-In . SVG Version: 6.00 Build 0)  -->
<svg style="enable-background:new 0 0 24 24;" id="图层_1" version="1.1"  viewBox="0 0 24 24" x="0px"
	 xmlns="http://www.w3.org/2000/svg" y="0px" xml:space="preserve">
<style type="text/css">
	.st0{fill:#F44336;}
	.st1{fill:#FF5252;}
	.st2{opacity:5.000000e-02;enable-background:new    ;}
</style>
<path class="st0" d="M12,0.5c3.2,0,6.1,1.3,8.2,3.4s3.3,4.9,3.3,8.1c0,6.4-5.1,11.5-11.5,11.5c-3.2,0-6-1.3-8.1-3.3
	c-2.1-2.1-3.4-5-3.4-8.2C0.5,5.6,5.6,0.5,12,0.5z"/>
<circle class="st1" cx="12" cy="12" r="1.4"/>
<path class="st2" d="M3.9,20.2c-2.1-2.1-3.4-5-3.4-8.2C0.5,5.6,5.6,0.5,12,0.5c3.2,0,6.1,1.3,8.2,3.4L3.9,20.2z"/>
</svg>
