<?xml version="1.0" encoding="utf-8"?><!-- Generator: Adobe Illustrator 23.0.0, SVG Export Plug-In . SVG Version: 6.00 Build 0)  -->
<svg style="enable-background:new 0 0 24 24;" id="图层_1" version="1.1"  viewBox="0 0 24 24" x="0px"
	 xmlns="http://www.w3.org/2000/svg" y="0px" xml:space="preserve">
<style type="text/css">
	.st0{fill:none;}
	.st1{fill:#F44336;}
	.st2{fill:#FF5955;}
	.st3{opacity:5.000000e-02;}
	.st4{fill:#FFD400;}
</style>
<path class="st0" d="M0.1,0.1l23.9,0v23.9H0.1L0.1,0.1z"/>
<circle class="st1" cx="12" cy="12" r="12"/>
<path class="st2" d="M20.2,12c0,4.5-3.7,8.2-8.2,8.2c-2.2,0-4.3-0.9-5.8-2.4c-1.5-1.5-2.4-3.5-2.4-5.8c0-4.5,3.7-8.2,8.2-8.2
	c2.2,0,4.3,0.9,5.8,2.4C19.3,7.7,20.2,9.7,20.2,12z"/>
<path class="st3" d="M3.5,20.5C1.3,18.3,0,15.3,0,12C0,5.4,5.4,0,12,0c3.3,0,6.3,1.3,8.5,3.5L3.5,20.5z" id="shadow"/>
<path class="st4" d="M13,2.6v6.6C12.7,9,12.3,9,12,9c-1.8,0-3.2,1.4-3.2,3.2s1.4,3.2,3.2,3.2c1.6,0,3-1.2,3.2-2.8l0,0V4.7l2.8-1V2.6
	H13z"/>
</svg>
